<svg width="24" height="24" viewBox="0 0 24 24" fill="none" xmlns="http://www.w3.org/2000/svg">
<g id="Frame">
<path id="comment-green" d="M12 2C6.486 2 2 5.589 2 10C2 12.908 3.897 15.516 7 16.934V22L12.34 17.996C17.697 17.852 22 14.32 22 10C22 5.589 17.514 2 12 2ZM9.5 11C9.10218 11 8.72064 10.842 8.43934 10.5607C8.15804 10.2794 8 9.89782 8 9.5C8 9.10218 8.15804 8.72064 8.43934 8.43934C8.72064 8.15804 9.10218 8 9.5 8C9.89782 8 10.2794 8.15804 10.5607 8.43934C10.842 8.72064 11 9.10218 11 9.5C11 9.89782 10.842 10.2794 10.5607 10.5607C10.2794 10.842 9.89782 11 9.5 11ZM14.5 11C14.1022 11 13.7206 10.842 13.4393 10.5607C13.158 10.2794 13 9.89782 13 9.5C13 9.10218 13.158 8.72064 13.4393 8.43934C13.7206 8.15804 14.1022 8 14.5 8C14.8978 8 15.2794 8.15804 15.5607 8.43934C15.842 8.72064 16 9.10218 16 9.5C16 9.89782 15.842 10.2794 15.5607 10.5607C15.2794 10.842 14.8978 11 14.5 11Z" fill="#4FDC54"/>
<g id="comment-gray">
<path id="Vector" d="M9.5 11C10.3284 11 11 10.3284 11 9.5C11 8.67157 10.3284 8 9.5 8C8.67157 8 8 8.67157 8 9.5C8 10.3284 8.67157 11 9.5 11Z" fill="#4F4F5E"/>
<path id="Vector_2" d="M14.5 11C15.3284 11 16 10.3284 16 9.5C16 8.67157 15.3284 8 14.5 8C13.6716 8 13 8.67157 13 9.5C13 10.3284 13.6716 11 14.5 11Z" fill="#4F4F5E"/>
<path id="Vector_3" d="M12 2C6.486 2 2 5.589 2 10C2 12.908 3.897 15.515 7 16.934V22L12.34 17.996C17.697 17.852 22 14.32 22 10C22 5.589 17.514 2 12 2ZM12 16H11.667L9 18V15.583L8.359 15.336C5.671 14.301 4 12.256 4 10C4 6.691 7.589 4 12 4C16.411 4 20 6.691 20 10C20 13.309 16.411 16 12 16Z" fill="#4F585D"/>
</g>
</g>
</svg>
